<svg xmlns="http://www.w3.org/2000/svg" width="20" height="18" fill="none"><path fill="#000" d="M15.639 1.35c-2.106-.404-3.773.332-5.128 2.268L10 4.353l-.51-.735C8.144 1.682 6.466.946 4.36 1.35 1.34 1.93.171 6.02 2.423 9.261c1.105 1.595 3.637 3.986 7.556 7.134l.021.02h.02c3.784-3.054 6.275-5.383 7.432-6.978l.115-.166c2.251-3.24 1.084-7.33-1.939-7.91l.01-.01Zm-5.629.88C11.563.398 13.544-.317 15.878.128c3.992.767 5.451 5.913 2.731 9.837-1.24 1.781-3.971 4.349-8.213 7.724L10 18l-.396-.31-.417-.332c-4.013-3.22-6.597-5.674-7.796-7.393C-1.329 6.041.13.895 4.121.128 6.457-.317 8.438.398 9.99 2.23h.02Z"/></svg>