<svg xmlns="http://www.w3.org/2000/svg" width="15" height="18" fill="none"><g fill="#000" clip-path="url(#a)"><path d="M11.175 7.92 7.498 4.424 3.842 7.9a.513.513 0 0 0-.186.39c0 .29.247.528.555.528a.564.564 0 0 0 .383-.149h.005a.032.032 0 0 0 .012-.008l2.234-2.122c.01-.01.02-.018.032-.025.003-.003.01-.003.013-.003.005 0 .01.004.027.011v6.536h.003c.017.289.266.519.573.519a.563.563 0 0 0 .574-.517l.003-.002V6.548c0-.009.002-.018.005-.027 0-.004.004-.007.007-.01l.02-.006L10.38 8.67c.102.1.243.162.402.162.309 0 .56-.238.56-.532a.514.514 0 0 0-.171-.38h.004Z"/><path d="M14.998 1.75a3.01 3.01 0 0 0-.014-.28C14.909.662 14.226.046 13.39.008c-.215-.01-.43-.008-.646-.008H1.845c-.084 0-.169.004-.253.008C.942.041.294.451.072 1.154.015 1.344 0 1.54 0 1.736v14.53c0 .063-.003.125.003.188.054.65.381 1.125 1.006 1.405.255.113.529.14.808.14h11.36c.07 0 .14 0 .21-.005.7-.054 1.195-.383 1.477-.994.11-.236.136-.488.136-.746V1.751l-.002-.001Zm-1.165 14.513c0 .058 0 .116-.006.174a.48.48 0 0 1-.377.433c-.084.021-.176.027-.263.027H1.815c-.051 0-.104.001-.155-.002a.507.507 0 0 1-.478-.386 1.12 1.12 0 0 1-.023-.252V1.74c0-.048-.001-.098.003-.147a.511.511 0 0 1 .433-.479c.072-.014.15-.01.224-.01H13.14c.066 0 .132-.002.197.002a.51.51 0 0 1 .49.453c.005.058.005.116.005.173v14.53Z"/></g><defs><clipPath id="a"><path fill="#fff" d="M0 0h15v18H0z"/></clipPath></defs></svg>