<svg xmlns="http://www.w3.org/2000/svg" width="15" height="20" fill="none"><g fill="#000" clip-path="url(#a)"><path d="M8.079 2.318V2.26c0-.009.001-.019.004-.028 0-.004.005-.007.008-.01.004-.003.008-.003.02-.007l2.278 2.301a.554.554 0 0 0 .402.172c.309 0 .56-.253.56-.565a.562.562 0 0 0-.171-.404L7.502 0 3.846 3.695a.559.559 0 0 0 .369.976c.149 0 .284-.06.383-.158l.006-.001a.032.032 0 0 0 .011-.008L6.85 2.25c.01-.01.02-.02.032-.027.003-.003.008-.003.013-.003.004 0 .009.005.026.012v9.89h.003a.58.58 0 0 0 .574.552.578.578 0 0 0 .574-.549s.003-.001.003-.003V2.316l.004.002Z"/><path d="M14.998 7.877a3.4 3.4 0 0 0-.014-.297 1.686 1.686 0 0 0-1.593-1.554c-.216-.01-.431-.009-.647-.009h-1.898c-.051 0-.1.003-.149.005l-.02-.002c-.32 0-.58.262-.58.586a.58.58 0 0 0 .577.584h2.468c.065 0 .13-.001.196.003.264.02.463.216.49.481.005.062.005.124.005.184v10.297c0 .061 0 .123-.005.185a.501.501 0 0 1-.378.46 1.055 1.055 0 0 1-.263.029H1.815c-.051 0-.104.001-.155-.002a.515.515 0 0 1-.477-.41 1.263 1.263 0 0 1-.024-.268V7.867c0-.052-.001-.105.003-.156.022-.266.184-.46.433-.51.073-.014.15-.011.224-.011h2.35c.04 0 .08-.001.12-.004H4.3l.02-.002h.012a.582.582 0 0 0 .546-.583.58.58 0 0 0-.546-.58v-.004H1.847c-.085 0-.17.005-.254.009-.65.035-1.297.47-1.517 1.218A2.1 2.1 0 0 0 0 7.861v10.297c0 .066-.003.132.003.198.054.692.381 1.197 1.006 1.494.255.12.529.15.809.15 3.786-.002 7.572 0 11.358 0 .07 0 .142 0 .212-.006.699-.057 1.194-.408 1.476-1.056.11-.252.136-.52.136-.794V7.877h-.002Z"/></g><defs><clipPath id="a"><path fill="#fff" d="M0 0h15v20H0z"/></clipPath></defs></svg>